name Run_500 03_newCOP3_v24.mot
datacolumns 19
datarows 84
range 1.895 1.9365
DataType=double
version=3
OpenSimVersion=4.3-2021-08-27-4bc7ad9
endheader
time	R_ground_force_vx	R_ground_force_vy	R_ground_force_vz	R_ground_force_px	R_ground_force_py	R_ground_force_pz	L_ground_force_vx	L_ground_force_vy	L_ground_force_vz	L_ground_force_px	L_ground_force_py	L_ground_force_pz	R_ground_torque_x	R_ground_torque_y	R_ground_torque_z	L_ground_torque_x	L_ground_torque_y	L_ground_torque_z
1.895	0	0	0	0	0	0	-154.86087	805.079529	43.679928	1.060954	0	-0.367463	0	0	0	0	-3.538862	0
1.8955	0	0	0	0	0	0	-155.225418	825.731934	43.863495	1.059822	0	-0.367001	0	0	0	0	-3.503876	0
1.896	0	0	0	0	0	0	-155.465195	846.289246	43.986767	1.058676	0	-0.36655	0	0	0	0	-3.464693	0
1.8965	0	0	0	0	0	0	-155.58847	866.726013	44.048046	1.057517	0	-0.366112	0	0	0	0	-3.421338	0
1.897	0	0	0	0	0	0	-155.604431	887.0169069999999	44.045799	1.056346	0	-0.365686	0	0	0	0	-3.373846	0
1.8975	0	0	0	0	0	0	-155.523026	907.137024	43.978687	1.055163	0	-0.365274	0	0	0	0	-3.322255	0
1.898	0	0	0	0	0	0	-155.354919	927.062012	43.845562	1.053968	0	-0.364876	0	0	0	0	-3.266611	0
1.8985	0	0	0	0	0	0	-155.111359	946.767883	43.645477	1.052764	0	-0.364492	0	0	0	0	-3.206967	0
1.899	0	0	0	0	0	0	-154.804031	966.231506	43.377708	1.051549	0	-0.364122	0	0	0	0	-3.143379	0
1.8995	0	0	0	0	0	0	-154.445007	985.430298	43.041752	1.050326	0	-0.363767	0	0	0	0	-3.075912	0
1.9	0	0	0	0	0	0	-154.04657	1004.34259	42.637329	1.049095	0	-0.363427	0	0	0	0	-3.004635	0
1.9005	0	0	0	0	0	0	-153.621094	1022.947449	42.164402	1.047856	0	-0.363103	0	0	0	0	-2.929624	0
1.901	0	0	0	0	0	0	-153.180908	1041.22522	41.623177	1.04661	0	-0.362794	0	0	0	0	-2.850961	0
1.9015	0	0	0	0	0	0	-152.738174	1059.15686	41.014091	1.045358	0	-0.3625	0	0	0	0	-2.768732	0
1.902	0	0	0	0	0	0	-152.304733	1076.724854	40.337849	1.0441	0	-0.362222	0	0	0	0	-2.683031	0
1.9025	0	0	0	0	0	0	-151.892014	1093.912842	39.595383	1.042838	0	-0.361959	0	0	0	0	-2.593954	0
1.903	0	0	0	0	0	0	-151.510895	1110.705322	38.78788	1.04157	0	-0.361712	0	0	0	0	-2.501606	0
1.9035	0	0	0	0	0	0	-151.171555	1127.088745	37.916771	1.040299	0	-0.361479	0	0	0	0	-2.406096	0
1.904	0	0	0	0	0	0	-150.883469	1143.050293	36.983727	1.039024	0	-0.361262	0	0	0	0	-2.307536	0
1.9045	0	0	0	0	0	0	-150.655197	1158.579224	35.990662	1.037746	0	-0.361059	0	0	0	0	-2.206045	0
1.905	0	0	0	0	0	0	-150.494385	1173.665894	34.939709	1.036465	0	-0.36087	0	0	0	0	-2.101746	0
1.9055	0	0	0	0	0	0	-150.407669	1188.302246	33.833229	1.035181	0	-0.360695	0	0	0	0	-1.994767	0
1.906	0	0	0	0	0	0	-150.400665	1202.481812	32.673801	1.033894	0	-0.360533	0	0	0	0	-1.885239	0
1.9065	0	0	0	0	0	0	-150.477829	1216.199707	31.464203	1.032605	0	-0.360384	0	0	0	0	-1.773297	0
1.907	0	0	0	0	0	0	-150.642578	1229.452637	30.207401	1.031312	0	-0.360247	0	0	0	0	-1.659081	0
1.9075	0	0	0	0	0	0	-150.897156	1242.238892	28.906548	1.030017	0	-0.360122	0	0	0	0	-1.542735	0
1.908	0	0	0	0	0	0	-151.242752	1254.558472	27.564959	1.028718	0	-0.360007	0	0	0	0	-1.424404	0
1.9085	0	0	0	0	0	0	-151.679413	1266.412598	26.186096	1.027416	0	-0.359903	0	0	0	0	-1.304238	0
1.909	0	0	0	0	0	0	-152.206161	1277.804565	24.773565	1.026111	0	-0.359809	0	0	0	0	-1.18239	0
1.9095	0	0	0	0	0	0	-152.82106	1288.73877	23.331085	1.024801	0	-0.359723	0	0	0	0	-1.059013	0
1.91	0	0	0	0	0	0	-153.521164	1299.221313	21.86248	1.023486	0	-0.359646	0	0	0	0	-0.934265	0
1.9105	0	0	0	0	0	0	-154.302734	1309.259644	20.371655	1.022166	0	-0.359576	0	0	0	0	-0.808306	0
1.911	0	0	0	0	0	0	-155.161179	1318.862427	18.862585	1.020841	0	-0.359512	0	0	0	0	-0.681296	0
1.9115	0	0	0	0	0	0	-156.091263	1328.039917	17.339293	1.019508	0	-0.359454	0	0	0	0	-0.5533979999999999	0
1.912	0	0	0	0	0	0	-157.087112	1336.803467	15.805827	1.018169	0	-0.359401	0	0	0	0	-0.424774	0
1.9125	0	0	0	0	0	0	-158.142319	1345.165405	14.266253	1.016822	0	-0.359352	0	0	0	0	-0.295591	0
1.913	0	0	0	0	0	0	-159.250092	1353.139404	12.724624	1.015467	0	-0.359306	0	0	0	0	-0.166012	0
1.9135	0	0	0	0	0	0	-160.40329	1360.739746	11.184969	1.014102	0	-0.359263	0	0	0	0	-0.036203	0
1.914	0	0	0	0	0	0	-161.594543	1367.981934	9.651273	1.012728	0	-0.359222	0	0	0	-0	0.09367	-0
1.9145	0	0	0	0	0	0	-162.81633	1374.881836	8.127459999999999	1.011343	0	-0.359182	0	0	0	-0	0.223441	-0
1.915	0	0	0	0	0	0	-164.061066	1381.456177	6.617374	1.009947	0	-0.359142	0	0	0	-0	0.352947	-0
1.9155	0	0	0	0	0	0	-165.321167	1387.722168	5.124766	1.008539	0	-0.359103	0	0	0	-0	0.482023	-0
1.916	0	0	0	0	0	0	-166.589172	1393.697388	3.653274	1.007119	0	-0.359062	0	0	0	-0	0.610506	-0
1.9165	0	0	0	0	0	0	-167.857727	1399.399902	2.206413	1.005685	0	-0.35902	0	0	0	-0	0.738235	-0
1.917	0	0	0	0	0	0	-169.11972	1404.847534	0.787557	1.004238	0	-0.358976	0	0	0	-0	0.865049	-0
1.9175	0	0	0	0	0	0	-170.368225	1410.058594	-0.600073	1.002776	0	-0.35893	0	0	0	-0	0.990791	-0
1.918	0	0	0	0	0	0	-171.59668	1415.051147	-1.953419	1.0013	0	-0.358881	0	0	0	-0	1.115305	-0
1.9185	0	0	0	0	0	0	-172.798798	1419.843384	-3.269596	0.9998089999999999	0	-0.358829	0	0	0	-0	1.238436	-0
1.919	0	0	0	0	0	0	-173.968628	1424.453125	-4.545907	0.998302	0	-0.358774	0	0	0	-0	1.360036	-0
1.9195	0	0	0	0	0	0	-175.100586	1428.897705	-5.779845	0.996779	0	-0.358715	0	0	0	-0	1.479955	-0
1.92	0	0	0	0	0	0	-176.189423	1433.194458	-6.969102	0.99524	0	-0.358653	0	0	0	-0	1.598048	-0
1.9205	0	0	0	0	0	0	-177.230301	1437.359985	-8.111577	0.993684	0	-0.358587	0	0	0	-0	1.714176	-0
1.921	0	0	0	0	0	0	-178.218674	1441.410278	-9.205379000000001	0.992111	0	-0.358517	0	0	0	-0	1.828198	-0
1.9215	0	0	0	0	0	0	-179.150391	1445.360962	-10.248825	0.990521	0	-0.358443	0	0	0	-0	1.939983	-0
1.922	0	0	0	0	0	0	-180.021591	1449.226929	-11.240454	0.988914	0	-0.358366	0	0	0	-0	2.049399	-0
1.9225	0	0	0	0	0	0	-180.828751	1453.022339	-12.179013	0.98729	0	-0.358285	0	0	0	-0	2.156322	-0
1.923	0	0	0	0	0	0	-181.568649	1456.760376	-13.063469	0.985648	0	-0.358201	0	0	0	-0	2.260629	-0
1.9235	0	0	0	0	0	0	-182.238342	1460.453857	-13.893	0.983988	0	-0.358114	0	0	0	-0	2.362204	-0
1.924	0	0	0	0	0	0	-182.835144	1464.114502	-14.666991	0.982311	0	-0.358024	0	0	0	-0	2.460935	-0
1.9245	0	0	0	0	0	0	-183.356598	1467.753174	-15.385039	0.980617	0	-0.357931	0	0	0	-0	2.556716	-0
1.925	0	0	0	0	0	0	-183.800507	1471.379883	-16.046936	0.978905	0	-0.357837	0	0	0	-0	2.649443	-0
1.9255	0	0	0	0	0	0	-184.164841	1475.004028	-16.652674	0.977176	0	-0.357741	0	0	0	-0	2.739021	-0
1.926	0	0	0	0	0	0	-184.447784	1478.633667	-17.202425	0.975429	0	-0.357644	0	0	0	-0	2.825357	-0
1.9265	0	0	0	0	0	0	-184.647736	1482.276367	-17.69655	0.973665	0	-0.357546	0	0	0	-0	2.908365	-0
1.927	0	0	0	0	0	0	-184.763214	1485.938721	-18.135578	0.971885	0	-0.357448	0	0	0	-0	2.987966	-0
1.9275	0	0	0	0	0	0	-184.792953	1489.626343	-18.520199	0.970088	0	-0.35735	0	0	0	-0	3.064083	-0
1.928	0	0	0	0	0	0	-184.735855	1493.344116	-18.851257	0.968275	0	-0.357253	0	0	0	-0	3.136648	-0
1.9285	0	0	0	0	0	0	-184.590942	1497.096069	-19.129742	0.966445	0	-0.357157	0	0	0	-0	3.205597	-0
1.929	0	0	0	0	0	0	-184.357468	1500.885376	-19.35677	0.9646	0	-0.357063	0	0	0	-0	3.270872	-0
1.9295	0	0	0	0	0	0	-184.034775	1504.714478	-19.533587	0.96274	0	-0.356971	0	0	0	-0	3.332422	-0
1.93	0	0	0	0	0	0	-183.622452	1508.585083	-19.661539	0.9608640000000001	0	-0.356882	0	0	0	-0	3.3902	-0
1.9305	0	0	0	0	0	0	-183.120193	1512.498291	-19.742079	0.958974	0	-0.356795	0	0	0	-0	3.444167	-0
1.931	0	0	0	0	0	0	-182.527939	1516.454224	-19.776747	0.957071	0	-0.356712	0	0	0	-0	3.494289	-0
1.9315	0	0	0	0	0	0	-181.845764	1520.452637	-19.767159	0.955153	0	-0.356633	0	0	0	-0	3.540537	-0
1.932	0	0	0	0	0	0	-181.073929	1524.492432	-19.714993	0.953223	0	-0.356559	0	0	0	-0	3.582889	-0
1.9325	0	0	0	0	0	0	-180.212921	1528.572266	-19.62199	0.95128	0	-0.356488	0	0	0	-0	3.621329	-0
1.933	0	0	0	0	0	0	-179.263367	1532.689941	-19.489927	0.949326	0	-0.356423	0	0	0	-0	3.655847	-0
1.9335	0	0	0	0	0	0	-178.226105	1536.843018	-19.320623	0.94736	0	-0.356362	0	0	0	-0	3.686438	-0
1.934	0	0	0	0	0	0	-177.102188	1541.028442	-19.115917	0.945383	0	-0.356307	0	0	0	-0	3.713104	-0
1.9345	0	0	0	0	0	0	-175.892792	1545.24292	-18.877661	0.943397	0	-0.356258	0	0	0	-0	3.735852	-0
1.935	0	0	0	0	0	0	-174.599335	1549.482544	-18.607718	0.941401	0	-0.356213	0	0	0	-0	3.754695	-0
1.9355	0	0	0	0	0	0	-173.223343	1553.743408	-18.307947	0.939397	0	-0.356175	0	0	0	-0	3.769652	-0
1.936	0	0	0	0	0	0	-171.766571	1558.02124	-17.980194	0.937384	0	-0.356142	0	0	0	-0	3.780746	-0
1.9365	0	0	0	0	0	0	-170.230865	1562.311279	-17.626293	0.935365	0	-0.356115	0	0	0	-0	3.788008	-0
